<?xml version="1.0" encoding="UTF-8" standalone="no"?>
<!DOCTYPE svg PUBLIC "-//W3C//DTD SVG 1.1//EN" "http://www.w3.org/Graphics/SVG/1.1/DTD/svg11.dtd">
<svg width="100%" height="100%" viewBox="0 0 1680 800" version="1.1" xmlns="http://www.w3.org/2000/svg" xmlns:xlink="http://www.w3.org/1999/xlink" xml:space="preserve" xmlns:serif="http://www.serif.com/" style="fill-rule:evenodd;clip-rule:evenodd;stroke-linecap:round;stroke-linejoin:round;stroke-miterlimit:1.5;">
    <g transform="matrix(1,0,0,1.00869,-4.7899,-150)">
        <rect x="-30.209" y="0" width="1750" height="1090.53" style="fill:white;stroke:white;stroke-width:1.98px;"/>
    </g>
    <g transform="matrix(0.988223,0,0,0.996809,87.9416,-19.9937)">
        <path d="M279.012,267.442L434.535,422.965L279.012,578.488L123.488,422.965L279.012,267.442Z" style="fill:none;stroke:rgb(242,175,13);stroke-width:8.42px;"/>
    </g>
    <g transform="matrix(0.693834,0,0,0.699862,1365.95,105.604)">
        <path d="M279.012,267.442L434.535,422.965L279.012,578.488L123.488,422.965L279.012,267.442Z" style="fill:none;stroke:rgb(242,175,13);stroke-width:13.23px;"/>
    </g>
    <g transform="matrix(6.05112e-17,-0.996809,2.01542,1.24481e-16,285.734,679.743)">
        <path d="M279.012,267.442L434.535,345.203L279.012,578.488L123.488,345.203L279.012,267.442Z" style="fill:none;stroke:rgb(242,175,13);stroke-width:5.26px;"/>
    </g>
    <g transform="matrix(0.988223,0,0,0.996809,395.325,-19.9937)">
        <path d="M279.012,267.442L434.535,422.965L279.012,578.488L123.488,422.965L279.012,267.442Z" style="fill:none;stroke:rgb(242,175,13);stroke-width:8.42px;"/>
    </g>
    <g transform="matrix(1.04323,0,0,1.05229,210.253,-7.5972)">
        <g transform="matrix(23.0055,0,0,23.0055,115.775,666.354)">
        </g>
        <text x="9.329px" y="666.354px" style="font-family:'FuturaDW01-DisCapsBook';font-size:23.005px;">OKTOBER</text>
    </g>
    <g transform="matrix(1.04323,0,0,1.05229,387.644,-7.5972)">
        <g transform="matrix(23.0055,0,0,23.0055,138.758,666.354)">
        </g>
        <text x="9.329px" y="666.354px" style="font-family:'FuturaDW01-DisCapsBook';font-size:23.005px;">NOVEMBER</text>
    </g>
    <g transform="matrix(1.04323,0,0,1.05229,581.008,-7.5972)">
        <g transform="matrix(23.0055,0,0,23.0055,128.589,666.354)">
        </g>
        <text x="9.329px" y="666.354px" style="font-family:'FuturaDW01-DisCapsBook';font-size:23.005px;">DECEMBER</text>
    </g>
    <g transform="matrix(1.04323,0,0,1.05229,774.236,-7.5972)">
        <g transform="matrix(23.0055,0,0,23.0055,105.032,666.354)">
        </g>
        <text x="9.329px" y="666.354px" style="font-family:'FuturaDW01-DisCapsBook';font-size:23.005px;">JANUARI</text>
    </g>
    <g transform="matrix(1.04323,0,0,1.05229,938.928,-7.5972)">
        <g transform="matrix(23.0055,0,0,23.0055,110.392,666.354)">
        </g>
        <text x="9.329px" y="666.354px" style="font-family:'FuturaDW01-DisCapsBook';font-size:23.005px;">FEBRUARI</text>
    </g>
    <g transform="matrix(1.04323,0,0,1.05229,1118.37,-7.5972)">
        <g transform="matrix(23.0055,0,0,23.0055,89.8713,666.354)">
        </g>
        <text x="9.329px" y="666.354px" style="font-family:'FuturaDW01-DisCapsBook';font-size:23.005px;">MAART</text>
    </g>
    <g transform="matrix(1.04323,0,0,1.05229,1270.99,-7.5972)">
        <g transform="matrix(23.0055,0,0,23.0055,65.8306,666.354)">
        </g>
        <text x="9.329px" y="666.354px" style="font-family:'FuturaDW01-DisCapsBook';font-size:23.005px;">APRIL</text>
    </g>
    <g transform="matrix(1.04323,0,0,1.05229,1410.78,-7.5972)">
        <g transform="matrix(23.0055,0,0,23.0055,49.8188,666.354)">
        </g>
        <text x="9.329px" y="666.354px" style="font-family:'FuturaDW01-DisCapsBook';font-size:23.005px;">MEI</text>
    </g>
    <g transform="matrix(1.04323,0,0,1.05229,1529.52,-7.5972)">
        <g transform="matrix(23.0055,0,0,23.0055,58.6068,666.354)">
        </g>
        <text x="9.329px" y="666.354px" style="font-family:'FuturaDW01-DisCapsBook';font-size:23.005px;">JUNI</text>
    </g>
    <g transform="matrix(0.680828,0,0,0.686743,334.463,154.661)">
        <text x="339.355px" y="549.039px" style="font-family:'ArialMT', 'Arial';font-size:18px;">CONCEPT</text>
        <text x="352.85px" y="567.628px" style="font-family:'ArialMT', 'Arial';font-size:18px;">TEST<tspan x="398.527px 403.528px " y="567.628px 567.628px "> 1</tspan></text>
    </g>
    <g transform="matrix(0.680828,0,0,0.686743,38.9004,176.017)">
        <text x="330.016px" y="549.039px" style="font-family:'ArialMT', 'Arial';font-size:18px;">SPRINT<tspan x="395.697px 400.698px 413.697px 424.367px " y="549.039px 549.039px 549.039px 549.039px "> DAY</tspan></text>
        <g transform="matrix(18,0,0,18,388.2,567.628)">
        </g>
        <text x="378.189px" y="567.628px" style="font-family:'ArialMT', 'Arial';font-size:18px;">1</text>
    </g>
    <g transform="matrix(0.680828,0,0,0.686743,158.714,177.717)">
        <text x="330.016px" y="549.039px" style="font-family:'ArialMT', 'Arial';font-size:18px;">SPRINT<tspan x="395.697px 400.698px 413.697px 424.367px " y="549.039px 549.039px 549.039px 549.039px "> DAY</tspan></text>
        <g transform="matrix(18,0,0,18,388.2,567.628)">
        </g>
        <text x="378.189px" y="567.628px" style="font-family:'ArialMT', 'Arial';font-size:18px;">2</text>
    </g>
    <g transform="matrix(0.680828,0,0,0.686743,439.398,197.171)">
        <text x="339.355px" y="549.039px" style="font-family:'ArialMT', 'Arial';font-size:18px;">CONCEPT</text>
        <text x="352.85px" y="567.628px" style="font-family:'ArialMT', 'Arial';font-size:18px;">TEST<tspan x="398.527px 403.528px " y="567.628px 567.628px "> 2</tspan></text>
    </g>
    <g transform="matrix(0.680828,0,0,0.686743,-37.5215,106.548)">
        <g transform="matrix(18,0,0,18,456.702,549.039)">
        </g>
        <text x="309.687px" y="549.039px" style="font-family:'ArialMT', 'Arial';font-size:18px;">BENCHMARKING</text>
    </g>
    <g transform="matrix(0.680828,0,0,0.686743,-10.2316,-77.0692)">
        <g transform="matrix(18,0,0,18,454.891,549.039)">
        </g>
        <text x="311.498px" y="549.039px" style="font-family:'ArialMT', 'Arial';font-size:18px;">HABIT<tspan x="364.179px 368.187px 380.193px " y="549.039px 549.039px 549.039px "> AN</tspan>AL<tspan x="413.873px 425.879px " y="549.039px 549.039px ">YS</tspan>IS</text>
    </g>
    <g transform="matrix(0.680828,0,0,0.686743,103.264,-143.627)">
        <g transform="matrix(18,0,0,18,427.206,549.039)">
        </g>
        <text x="339.183px" y="549.039px" style="font-family:'ArialMT', 'Arial';font-size:18px;">PERSONA</text>
    </g>
    <g transform="matrix(0.680828,0,0,0.686743,239.574,-67.9129)">
        <text x="289.341px" y="549.039px" style="font-family:'ArialMT', 'Arial';font-size:18px;">V<tspan x="300.01px 312.016px " y="549.039px 549.039px ">AL</tspan>UE PROPOSITION</text>
        <g transform="matrix(18,0,0,18,419.537,567.628)">
        </g>
        <text x="346.852px" y="567.628px" style="font-family:'ArialMT', 'Arial';font-size:18px;">CANV<tspan x="395.526px 407.531px " y="567.628px 567.628px ">AS</tspan></text>
    </g>
    <g transform="matrix(0.680828,0,0,0.686743,-10.2227,141.282)">
        <g transform="matrix(18,0,0,18,466.541,549.039)">
        </g>
        <text x="299.848px" y="549.039px" style="font-family:'ArialMT', 'Arial';font-size:18px;">USER INTER<tspan x="408.533px 420.539px " y="549.039px 549.039px ">VI</tspan>EWS</text>
    </g>
    <g transform="matrix(0.680828,0,0,0.686743,521.994,-90.3722)">
        <text x="348.689px" y="549.039px" style="font-family:'ArialMT', 'Arial';font-size:18px;">DESIGN</text>
        <g transform="matrix(18,0,0,18,455.7,567.628)">
        </g>
        <text x="310.689px" y="567.628px" style="font-family:'ArialMT', 'Arial';font-size:18px;">REQUIREMENTS</text>
    </g>
    <g transform="matrix(1.57365,0,0,1.58732,-245.244,-747.296)">
        <g transform="matrix(31.7734,0,0,31.7734,444.454,549.039)">
        </g>
        <text x="321.935px" y="549.039px" style="font-family:'DesignerRegular', 'Designer';font-size:31.773px;">DISC<tspan x="372.995px 390.884px " y="549.039px 549.039px ">OV</tspan>ER<tspan x="430.283px " y="549.039px ">Y</tspan></text>
    </g>
    <g transform="matrix(1.57365,0,0,1.58732,68.1075,-747.296)">
        <g transform="matrix(31.7734,0,0,31.7734,443.373,549.039)">
        </g>
        <text x="323.016px" y="549.039px" style="font-family:'DesignerRegular', 'Designer';font-size:31.773px;">DEFINITION</text>
    </g>
    <g transform="matrix(1.57365,0,0,1.58732,448.654,-747.296)">
        <g transform="matrix(31.7734,0,0,31.7734,430.108,549.039)">
        </g>
        <text x="336.281px" y="549.039px" style="font-family:'DesignerRegular', 'Designer';font-size:31.773px;">DEVEL<tspan x="398.017px " y="549.039px ">O</tspan>P</text>
    </g>
    <g transform="matrix(1.57365,0,0,1.58732,955.615,-747.296)">
        <g transform="matrix(31.7734,0,0,31.7734,424.786,549.039)">
        </g>
        <text x="341.603px" y="549.039px" style="font-family:'DesignerRegular', 'Designer';font-size:31.773px;">DELIVER</text>
    </g>
    <g transform="matrix(0.694045,0,0,0.596906,191.757,86.1308)">
        <rect x="426.344" y="502.15" width="85.587" height="52.788" style="fill:rgb(242,42,13);stroke:rgb(243,41,12);stroke-width:12.21px;"/>
    </g>
    <g transform="matrix(0.459882,0,0,0.463878,340.898,145.614)">
        <text x="329.867px" y="549.039px" style="font-family:'ArialMT', 'Arial';font-size:18px;">HOW MIGHT</text>
        <g transform="matrix(18,0,0,18,397.692,567.628)">
        </g>
        <text x="368.697px" y="567.628px" style="font-family:'ArialMT', 'Arial';font-size:18px;">WE</text>
    </g>
    <g transform="matrix(0.694045,0,0,0.596906,499.14,86.1308)">
        <rect x="426.344" y="502.15" width="85.587" height="52.788" style="fill:rgb(242,42,13);stroke:rgb(243,41,12);stroke-width:12.21px;"/>
    </g>
    <g transform="matrix(0.459882,0,0,0.463878,648.282,145.614)">
        <text x="338.695px" y="549.039px" style="font-family:'ArialMT', 'Arial';font-size:18px;">PRODUCT</text>
        <g transform="matrix(18,0,0,18,410.195,567.628)">
        </g>
        <text x="356.195px" y="567.628px" style="font-family:'ArialMT', 'Arial';font-size:18px;">PITCH</text>
    </g>
    <g transform="matrix(1,0,0,1.00869,-8.96384,-110.787)">
        <text x="19.335px" y="378.559px" style="font-family:'FuturaDW01-DisCapsBook';font-size:29.885px;">Knowledge</text>
        <g transform="matrix(29.8847,0,0,29.8847,150.05,414.421)">
        </g>
        <text x="34.367px" y="414.421px" style="font-family:'FuturaDW01-DisCapsBook';font-size:29.885px;">templates</text>
    </g>
    <g transform="matrix(1,0,0,1.00869,-12.4211,3.77761)">
        <text x="48.129px" y="378.559px" style="font-family:'FuturaDW01-DisCapsBook';font-size:29.885px;">Design</text>
        <g transform="matrix(29.8847,0,0,29.8847,153.741,414.421)">
        </g>
        <text x="30.676px" y="414.421px" style="font-family:'FuturaDW01-DisCapsBook';font-size:29.885px;">Artefacts</text>
    </g>
    <g transform="matrix(1,0,0,1.00869,-8.09718,122.005)">
        <text x="35.353px" y="378.559px" style="font-family:'FuturaDW01-DisCapsBook';font-size:29.885px;">Research</text>
        <g transform="matrix(29.8847,0,0,29.8847,150.11,414.421)">
        </g>
        <text x="34.307px" y="414.421px" style="font-family:'FuturaDW01-DisCapsBook';font-size:29.885px;">Activities</text>
    </g>
    <g transform="matrix(1,0,0,1.00869,-8.02247,314.672)">
        <g transform="matrix(29.8847,0,0,29.8847,155.026,378.559)">
        </g>
        <text x="29.391px" y="378.559px" style="font-family:'FuturaDW01-DisCapsBook';font-size:29.885px;">Timeframe</text>
    </g>
    <g transform="matrix(1,0,0,1.00869,-8.96384,-262.05)">
        <g transform="matrix(29.8847,0,0,29.8847,127.951,378.559)">
        </g>
        <text x="56.466px" y="378.559px" style="font-family:'FuturaDW01-DisCapsBook';font-size:29.885px;">Phase</text>
    </g>
    <g transform="matrix(1,0,0,1.00869,0.760193,-129.765)">
        <g transform="matrix(1,0,0,1,309.168,-33.5618)">
            <rect x="255.04" y="525" width="60.207" height="56.241" style="fill:rgb(243,242,10);stroke:rgb(243,242,12);stroke-width:1.98px;"/>
        </g>
        <g transform="matrix(1,0,0,0.991387,309.168,-29.0399)">
            <g transform="matrix(1.3125,0,0,1,-81.0819,0)">
                <text x="259.462px" y="551.918px" style="font-family:'ArialMT', 'Arial';font-size:9.143px;">Prototype</text>
            </g>
            <g transform="matrix(1.3125,0,0,1,-83.1666,0)">
                <g transform="matrix(9.14286,0,0,9.14286,295.102,561.36)">
                </g>
                <text x="266.133px" y="561.36px" style="font-family:'ArialMT', 'Arial';font-size:9.143px;">wave 1</text>
            </g>
        </g>
    </g>
    <g transform="matrix(1,0,0,1.00869,-158.927,-135.061)">
        <g transform="matrix(1,0,0,1,309.168,-33.5618)">
            <rect x="255.04" y="525" width="60.207" height="56.241" style="fill:rgb(243,242,10);stroke:rgb(243,242,12);stroke-width:1.98px;"/>
        </g>
        <g transform="matrix(1,0,0,0.991387,309.168,-29.0399)">
            <g transform="matrix(1.3125,0,0,1,-79.9357,0)">
                <g transform="matrix(9.14286,0,0,9.14286,300.517,556.639)">
                </g>
                <text x="255.794px" y="556.639px" style="font-family:'ArialMT', 'Arial';font-size:9.143px;">Storyboard</text>
            </g>
        </g>
    </g>
    <g transform="matrix(1,0,0,1.00869,105.696,-106.696)">
        <g transform="matrix(1,0,0,1,309.168,-33.5618)">
            <rect x="255.04" y="525" width="60.207" height="56.241" style="fill:rgb(243,242,10);stroke:rgb(243,242,12);stroke-width:1.98px;"/>
        </g>
        <g transform="matrix(1,0,0,0.991387,309.168,-29.0399)">
            <g transform="matrix(1.3125,0,0,1,-81.0819,0)">
                <text x="259.462px" y="551.918px" style="font-family:'ArialMT', 'Arial';font-size:9.143px;">Prototype</text>
            </g>
            <g transform="matrix(1.3125,0,0,1,-83.1666,0)">
                <g transform="matrix(9.14286,0,0,9.14286,295.102,561.36)">
                </g>
                <text x="266.133px" y="561.36px" style="font-family:'ArialMT', 'Arial';font-size:9.143px;">wave 2</text>
            </g>
        </g>
    </g>
</svg>
