<?xml version="1.0" encoding="UTF-8" standalone="no"?>
<!DOCTYPE svg PUBLIC "-//W3C//DTD SVG 1.1//EN" "http://www.w3.org/Graphics/SVG/1.1/DTD/svg11.dtd">
<svg width="100%" height="100%" viewBox="0 0 1680 1050" version="1.1" xmlns="http://www.w3.org/2000/svg" xmlns:xlink="http://www.w3.org/1999/xlink" xml:space="preserve" xmlns:serif="http://www.serif.com/" style="fill-rule:evenodd;clip-rule:evenodd;stroke-linecap:round;stroke-linejoin:round;stroke-miterlimit:1.5;">
    <g transform="matrix(1,0,0,1,0,-21)">
        <rect x="-30.209" y="0" width="1750" height="1090.53" style="fill:white;stroke:white;stroke-width:2.28px;"/>
    </g>
    <g transform="matrix(0.988223,0,0,0.988223,78.8465,114.267)">
        <path d="M279.012,267.442L434.535,422.965L279.012,578.488L123.488,422.965L279.012,267.442Z" style="fill:none;stroke:rgb(242,175,13);stroke-width:9.69px;"/>
    </g>
    <g transform="matrix(0.693834,0,0,0.693834,1356.86,238.783)">
        <path d="M279.012,267.442L434.535,422.965L279.012,578.488L123.488,422.965L279.012,267.442Z" style="fill:none;stroke:rgb(242,175,13);stroke-width:15.22px;"/>
    </g>
    <g transform="matrix(6.05112e-17,-0.988223,2.01542,1.23409e-16,276.639,807.977)">
        <path d="M279.012,267.442L434.535,345.203L279.012,578.488L123.488,345.203L279.012,267.442Z" style="fill:none;stroke:rgb(242,175,13);stroke-width:6.03px;"/>
    </g>
    <g transform="matrix(0.988223,0,0,0.988223,386.23,114.267)">
        <path d="M279.012,267.442L434.535,422.965L279.012,578.488L123.488,422.965L279.012,267.442Z" style="fill:none;stroke:rgb(242,175,13);stroke-width:9.69px;"/>
    </g>
    <g transform="matrix(1.04323,0,0,1.04323,201.158,126.557)">
        <g transform="matrix(23.0055,0,0,23.0055,115.775,666.354)">
        </g>
        <text x="9.329px" y="666.354px" style="font-family:'FuturaDW01-DisCapsBook';font-size:23.005px;">OKTOBER</text>
    </g>
    <g transform="matrix(1.04323,0,0,1.04323,378.549,126.557)">
        <g transform="matrix(23.0055,0,0,23.0055,138.758,666.354)">
        </g>
        <text x="9.329px" y="666.354px" style="font-family:'FuturaDW01-DisCapsBook';font-size:23.005px;">NOVEMBER</text>
    </g>
    <g transform="matrix(1.04323,0,0,1.04323,571.913,126.557)">
        <g transform="matrix(23.0055,0,0,23.0055,128.589,666.354)">
        </g>
        <text x="9.329px" y="666.354px" style="font-family:'FuturaDW01-DisCapsBook';font-size:23.005px;">DECEMBER</text>
    </g>
    <g transform="matrix(1.04323,0,0,1.04323,765.141,126.557)">
        <g transform="matrix(23.0055,0,0,23.0055,105.032,666.354)">
        </g>
        <text x="9.329px" y="666.354px" style="font-family:'FuturaDW01-DisCapsBook';font-size:23.005px;">JANUARI</text>
    </g>
    <g transform="matrix(1.04323,0,0,1.04323,929.833,126.557)">
        <g transform="matrix(23.0055,0,0,23.0055,110.392,666.354)">
        </g>
        <text x="9.329px" y="666.354px" style="font-family:'FuturaDW01-DisCapsBook';font-size:23.005px;">FEBRUARI</text>
    </g>
    <g transform="matrix(1.04323,0,0,1.04323,1109.28,126.557)">
        <g transform="matrix(23.0055,0,0,23.0055,89.8713,666.354)">
        </g>
        <text x="9.329px" y="666.354px" style="font-family:'FuturaDW01-DisCapsBook';font-size:23.005px;">MAART</text>
    </g>
    <g transform="matrix(1.04323,0,0,1.04323,1261.89,126.557)">
        <g transform="matrix(23.0055,0,0,23.0055,65.8306,666.354)">
        </g>
        <text x="9.329px" y="666.354px" style="font-family:'FuturaDW01-DisCapsBook';font-size:23.005px;">APRIL</text>
    </g>
    <g transform="matrix(1.04323,0,0,1.04323,1401.68,126.557)">
        <g transform="matrix(23.0055,0,0,23.0055,49.8188,666.354)">
        </g>
        <text x="9.329px" y="666.354px" style="font-family:'FuturaDW01-DisCapsBook';font-size:23.005px;">MEI</text>
    </g>
    <g transform="matrix(1.04323,0,0,1.04323,1520.42,126.557)">
        <g transform="matrix(23.0055,0,0,23.0055,58.6068,666.354)">
        </g>
        <text x="9.329px" y="666.354px" style="font-family:'FuturaDW01-DisCapsBook';font-size:23.005px;">JUNI</text>
    </g>
    <g transform="matrix(0.680828,0,0,0.680828,325.368,287.418)">
        <text x="339.355px" y="549.039px" style="font-family:'ArialMT', 'Arial';font-size:18px;">CONCEPT</text>
        <text x="352.85px" y="567.628px" style="font-family:'ArialMT', 'Arial';font-size:18px;">TEST<tspan x="398.527px 403.528px " y="567.628px 567.628px "> 1</tspan></text>
    </g>
    <g transform="matrix(0.680828,0,0,0.680828,29.8054,308.59)">
        <text x="330.016px" y="549.039px" style="font-family:'ArialMT', 'Arial';font-size:18px;">SPRINT<tspan x="395.697px 400.698px 413.697px 424.367px " y="549.039px 549.039px 549.039px 549.039px "> DAY</tspan></text>
        <g transform="matrix(18,0,0,18,388.2,567.628)">
        </g>
        <text x="378.189px" y="567.628px" style="font-family:'ArialMT', 'Arial';font-size:18px;">1</text>
    </g>
    <g transform="matrix(0.680828,0,0,0.680828,149.619,310.275)">
        <text x="330.016px" y="549.039px" style="font-family:'ArialMT', 'Arial';font-size:18px;">SPRINT<tspan x="395.697px 400.698px 413.697px 424.367px " y="549.039px 549.039px 549.039px 549.039px "> DAY</tspan></text>
        <g transform="matrix(18,0,0,18,388.2,567.628)">
        </g>
        <text x="378.189px" y="567.628px" style="font-family:'ArialMT', 'Arial';font-size:18px;">2</text>
    </g>
    <g transform="matrix(0.680828,0,0,0.680828,430.303,329.561)">
        <text x="339.355px" y="549.039px" style="font-family:'ArialMT', 'Arial';font-size:18px;">CONCEPT</text>
        <text x="352.85px" y="567.628px" style="font-family:'ArialMT', 'Arial';font-size:18px;">TEST<tspan x="398.527px 403.528px " y="567.628px 567.628px "> 2</tspan></text>
    </g>
    <g transform="matrix(0.680828,0,0,0.680828,-25.7794,50.5725)">
        <g transform="matrix(18,0,0,18,456.702,549.039)">
        </g>
        <text x="309.687px" y="549.039px" style="font-family:'ArialMT', 'Arial';font-size:18px;">BENCHMARKING</text>
    </g>
    <g transform="matrix(0.680828,0,0,0.680828,88.3411,-10.2027)">
        <g transform="matrix(18,0,0,18,466.541,549.039)">
        </g>
        <text x="299.848px" y="549.039px" style="font-family:'ArialMT', 'Arial';font-size:18px;">USER INTER<tspan x="408.533px 420.539px " y="549.039px 549.039px ">VI</tspan>EWS</text>
    </g>
    <g transform="matrix(1.57365,0,0,1.57365,-254.339,-606.771)">
        <g transform="matrix(31.7734,0,0,31.7734,444.454,549.039)">
        </g>
        <text x="321.935px" y="549.039px" style="font-family:'DesignerRegular', 'Designer';font-size:31.773px;">DISC<tspan x="372.995px 390.884px " y="549.039px 549.039px ">OV</tspan>ER<tspan x="430.283px " y="549.039px ">Y</tspan></text>
    </g>
    <g transform="matrix(1.57365,0,0,1.57365,59.0124,-606.771)">
        <g transform="matrix(31.7734,0,0,31.7734,443.373,549.039)">
        </g>
        <text x="323.016px" y="549.039px" style="font-family:'DesignerRegular', 'Designer';font-size:31.773px;">DEFINITION</text>
    </g>
    <g transform="matrix(1.57365,0,0,1.57365,439.559,-606.771)">
        <g transform="matrix(31.7734,0,0,31.7734,430.108,549.039)">
        </g>
        <text x="336.281px" y="549.039px" style="font-family:'DesignerRegular', 'Designer';font-size:31.773px;">DEVEL<tspan x="398.017px " y="549.039px ">O</tspan>P</text>
    </g>
    <g transform="matrix(1.57365,0,0,1.57365,946.52,-606.771)">
        <g transform="matrix(31.7734,0,0,31.7734,424.786,549.039)">
        </g>
        <text x="341.603px" y="549.039px" style="font-family:'DesignerRegular', 'Designer';font-size:31.773px;">DELIVER</text>
    </g>
    <g transform="matrix(0.694045,0,0,0.591765,182.662,219.478)">
        <rect x="426.344" y="502.15" width="85.587" height="52.788" style="fill:rgb(242,42,13);stroke:rgb(243,41,12);stroke-width:14.03px;"/>
    </g>
    <g transform="matrix(0.459882,0,0,0.459882,331.803,278.448)">
        <text x="329.867px" y="549.039px" style="font-family:'ArialMT', 'Arial';font-size:18px;">HOW MIGHT</text>
        <g transform="matrix(18,0,0,18,397.692,567.628)">
        </g>
        <text x="368.697px" y="567.628px" style="font-family:'ArialMT', 'Arial';font-size:18px;">WE</text>
    </g>
    <g transform="matrix(0.694045,0,0,0.591765,490.045,219.478)">
        <rect x="426.344" y="502.15" width="85.587" height="52.788" style="fill:rgb(242,42,13);stroke:rgb(243,41,12);stroke-width:14.03px;"/>
    </g>
    <g transform="matrix(0.459882,0,0,0.459882,639.187,278.448)">
        <text x="338.695px" y="549.039px" style="font-family:'ArialMT', 'Arial';font-size:18px;">PRODUCT</text>
        <g transform="matrix(18,0,0,18,410.195,567.628)">
        </g>
        <text x="356.195px" y="567.628px" style="font-family:'ArialMT', 'Arial';font-size:18px;">PITCH</text>
    </g>
    <g transform="matrix(1,0,0,1,-18.0589,24.2558)">
        <text x="19.335px" y="378.559px" style="font-family:'FuturaDW01-DisCapsBook';font-size:29.885px;">Knowledge</text>
        <g transform="matrix(29.8847,0,0,29.8847,150.05,414.421)">
        </g>
        <text x="34.367px" y="414.421px" style="font-family:'FuturaDW01-DisCapsBook';font-size:29.885px;">templates</text>
    </g>
    <g transform="matrix(1,0,0,1,-21.5162,137.834)">
        <text x="48.129px" y="378.559px" style="font-family:'FuturaDW01-DisCapsBook';font-size:29.885px;">Design</text>
        <g transform="matrix(29.8847,0,0,29.8847,153.741,414.421)">
        </g>
        <text x="30.676px" y="414.421px" style="font-family:'FuturaDW01-DisCapsBook';font-size:29.885px;">Artefacts</text>
    </g>
    <g transform="matrix(1,0,0,1,-17.1922,255.043)">
        <text x="35.353px" y="378.559px" style="font-family:'FuturaDW01-DisCapsBook';font-size:29.885px;">Research</text>
        <g transform="matrix(29.8847,0,0,29.8847,150.11,414.421)">
        </g>
        <text x="34.307px" y="414.421px" style="font-family:'FuturaDW01-DisCapsBook';font-size:29.885px;">Activities</text>
    </g>
    <g transform="matrix(1,0,0,1,-17.1175,446.051)">
        <g transform="matrix(29.8847,0,0,29.8847,155.026,378.559)">
        </g>
        <text x="29.391px" y="378.559px" style="font-family:'FuturaDW01-DisCapsBook';font-size:29.885px;">Timeframe</text>
    </g>
    <g transform="matrix(1,0,0,1,-18.0589,-125.704)">
        <g transform="matrix(29.8847,0,0,29.8847,127.951,378.559)">
        </g>
        <text x="56.466px" y="378.559px" style="font-family:'FuturaDW01-DisCapsBook';font-size:29.885px;">Phase</text>
    </g>
    <g transform="matrix(1,0,0,1,-8.33488,5.44125)">
        <g transform="matrix(1,0,0,1,309.168,-33.5618)">
            <rect x="255.04" y="525" width="60.207" height="56.241" style="fill:rgb(243,242,10);stroke:rgb(243,242,12);stroke-width:2.28px;"/>
        </g>
        <g transform="matrix(1,0,0,1,309.168,-33.5618)">
            <text x="259.462px" y="551.222px" style="font-family:'ArialMT', 'Arial';font-size:12px;">Prototype</text>
            <g transform="matrix(12,0,0,12,304.154,563.615)">
            </g>
            <text x="266.133px" y="563.615px" style="font-family:'ArialMT', 'Arial';font-size:12px;">wave 1</text>
        </g>
    </g>
    <g transform="matrix(1,0,0,1,-168.022,0.190766)">
        <g transform="matrix(1,0,0,1,309.168,-33.5618)">
            <rect x="255.04" y="525" width="60.207" height="56.241" style="fill:rgb(243,242,10);stroke:rgb(243,242,12);stroke-width:2.28px;"/>
        </g>
        <g transform="matrix(1,0,0,1,309.168,-33.5618)">
            <g transform="matrix(12,0,0,12,314.493,557.418)">
            </g>
            <text x="255.794px" y="557.418px" style="font-family:'ArialMT', 'Arial';font-size:12px;">Storyboard</text>
        </g>
    </g>
    <g transform="matrix(1,0,0,1,96.6008,28.3113)">
        <g transform="matrix(1,0,0,1,309.168,-33.5618)">
            <rect x="255.04" y="525" width="60.207" height="56.241" style="fill:rgb(243,242,10);stroke:rgb(243,242,12);stroke-width:2.28px;"/>
        </g>
        <g transform="matrix(1,0,0,1,309.168,-33.5618)">
            <text x="259.462px" y="551.222px" style="font-family:'ArialMT', 'Arial';font-size:12px;">Prototype</text>
            <g transform="matrix(12,0,0,12,304.154,563.615)">
            </g>
            <text x="266.133px" y="563.615px" style="font-family:'ArialMT', 'Arial';font-size:12px;">wave 2</text>
        </g>
    </g>
</svg>
